<svg width="221" height="48" viewBox="0 0 221 48" fill="none" xmlns="http://www.w3.org/2000/svg">
<path d="M64.3655 7.56619L68.2406 17.863L72.1065 7.56619H75.1236V21H72.7985V16.5713L73.0292 10.6478L69.0618 21H67.3918L63.4336 10.6571L63.6642 16.5713V21H61.3392V7.56619H64.3655ZM82.2446 21H79.9195V7.56619H82.2446V21ZM94.025 17.5401C94.025 16.9496 93.8159 16.4944 93.3976 16.1745C92.9855 15.8547 92.2382 15.5317 91.1556 15.2057C90.073 14.8797 89.2119 14.5168 88.5721 14.117C87.3481 13.3481 86.7361 12.3455 86.7361 11.1092C86.7361 10.0266 87.1759 9.1347 88.0555 8.43348C88.9412 7.73227 90.0884 7.38166 91.497 7.38166C92.4319 7.38166 93.2654 7.55389 93.9973 7.89834C94.7293 8.2428 95.3044 8.73488 95.7227 9.37459C96.141 10.0081 96.3501 10.7124 96.3501 11.4875H94.025C94.025 10.7862 93.8036 10.2388 93.3607 9.84514C92.924 9.44532 92.2966 9.24542 91.4785 9.24542C90.7158 9.24542 90.1222 9.40842 89.6978 9.73442C89.2795 10.0604 89.0704 10.5156 89.0704 11.0999C89.0704 11.592 89.298 12.0041 89.7531 12.3363C90.2083 12.6623 90.9587 12.9822 92.0044 13.2959C93.0501 13.6034 93.8897 13.9571 94.5233 14.3569C95.1568 14.7506 95.6212 15.2057 95.9165 15.7224C96.2117 16.233 96.3593 16.8327 96.3593 17.5216C96.3593 18.6411 95.9288 19.533 95.0676 20.1973C94.2126 20.8555 93.0501 21.1845 91.58 21.1845C90.6081 21.1845 89.7132 21.0062 88.8951 20.6494C88.0831 20.2865 87.4496 19.7883 86.9944 19.1547C86.5454 18.5211 86.3209 17.783 86.3209 16.9403H88.6552C88.6552 17.7031 88.9074 18.2936 89.4118 18.7118C89.9161 19.1301 90.6389 19.3392 91.58 19.3392C92.3919 19.3392 93.0009 19.1762 93.4068 18.8502C93.819 18.5181 94.025 18.0813 94.025 17.5401ZM110.004 9.4484H105.815V21H103.499V9.4484H99.3469V7.56619H110.004V9.4484ZM130.003 19.2562C129.517 19.8897 128.843 20.3695 127.982 20.6955C127.121 21.0215 126.143 21.1845 125.048 21.1845C123.923 21.1845 122.926 20.9293 122.059 20.4187C121.192 19.9082 120.521 19.1793 120.047 18.232C119.58 17.2786 119.337 16.1684 119.319 14.9013V13.8494C119.319 11.8196 119.805 10.2357 120.776 9.09779C121.748 7.9537 123.105 7.38166 124.845 7.38166C126.34 7.38166 127.527 7.75072 128.407 8.48884C129.286 9.22696 129.815 10.2911 129.994 11.6812H127.706C127.447 10.0635 126.509 9.25464 124.891 9.25464C123.846 9.25464 123.049 9.63293 122.502 10.3895C121.96 11.1399 121.681 12.244 121.662 13.7018V14.7352C121.662 16.1868 121.967 17.3155 122.576 18.1213C123.191 18.921 124.043 19.3208 125.131 19.3208C126.325 19.3208 127.173 19.0501 127.678 18.5088V15.8793H124.91V14.1078H130.003V19.2562ZM141.977 17.8722H136.773L135.685 21H133.258L138.333 7.56619H140.427L145.511 21H143.075L141.977 17.8722ZM137.428 15.99H141.322L139.375 10.4172L137.428 15.99ZM153.868 15.8239H151.266V21H148.932V7.56619H153.656C155.206 7.56619 156.402 7.91372 157.245 8.60879C158.088 9.30385 158.509 10.3095 158.509 11.6259C158.509 12.5239 158.291 13.2774 157.854 13.8864C157.424 14.4892 156.821 14.9536 156.046 15.2796L159.063 20.8801V21H156.562L153.868 15.8239ZM151.266 13.9509H153.665C154.453 13.9509 155.068 13.7541 155.511 13.3604C155.953 12.9606 156.175 12.4163 156.175 11.7273C156.175 11.0077 155.969 10.451 155.557 10.0573C155.151 9.66368 154.542 9.4607 153.73 9.4484H151.266V13.9509ZM162.613 21V7.56619H166.581C167.768 7.56619 168.819 7.83068 169.736 8.35967C170.659 8.88866 171.372 9.63908 171.877 10.6109C172.381 11.5828 172.633 12.6961 172.633 13.9509V14.6245C172.633 15.8977 172.378 17.0172 171.867 17.9829C171.363 18.9486 170.64 19.6929 169.699 20.2157C168.764 20.7386 167.691 21 166.479 21H162.613ZM164.947 9.4484V19.1362H166.47C167.694 19.1362 168.632 18.7549 169.284 17.9922C169.942 17.2233 170.277 16.1222 170.29 14.6891V13.9417C170.29 12.4839 169.973 11.3706 169.339 10.6017C168.706 9.83284 167.786 9.4484 166.581 9.4484H164.947ZM184.7 15.0028H179.182V19.1362H185.631V21H176.848V7.56619H185.567V9.4484H179.182V13.1575H184.7V15.0028ZM200.078 21H197.744L191.756 11.469V21H189.422V7.56619H191.756L197.762 17.1341V7.56619H200.078V21ZM211.748 17.5401C211.748 16.9496 211.539 16.4944 211.121 16.1745C210.708 15.8547 209.961 15.5317 208.879 15.2057C207.796 14.8797 206.935 14.5168 206.295 14.117C205.071 13.3481 204.459 12.3455 204.459 11.1092C204.459 10.0266 204.899 9.1347 205.778 8.43348C206.664 7.73227 207.811 7.38166 209.22 7.38166C210.155 7.38166 210.988 7.55389 211.72 7.89834C212.452 8.2428 213.027 8.73488 213.446 9.37459C213.864 10.0081 214.073 10.7124 214.073 11.4875H211.748C211.748 10.7862 211.527 10.2388 211.084 9.84514C210.647 9.44532 210.02 9.24542 209.202 9.24542C208.439 9.24542 207.845 9.40842 207.421 9.73442C207.003 10.0604 206.793 10.5156 206.793 11.0999C206.793 11.592 207.021 12.0041 207.476 12.3363C207.931 12.6623 208.682 12.9822 209.727 13.2959C210.773 13.6034 211.613 13.9571 212.246 14.3569C212.88 14.7506 213.344 15.2057 213.639 15.7224C213.935 16.233 214.082 16.8327 214.082 17.5216C214.082 18.6411 213.652 19.533 212.791 20.1973C211.936 20.8555 210.773 21.1845 209.303 21.1845C208.331 21.1845 207.436 21.0062 206.618 20.6494C205.806 20.2865 205.173 19.7883 204.717 19.1547C204.268 18.5211 204.044 17.783 204.044 16.9403H206.378C206.378 17.7031 206.63 18.2936 207.135 18.7118C207.639 19.1301 208.362 19.3392 209.303 19.3392C210.115 19.3392 210.724 19.1762 211.13 18.8502C211.542 18.5181 211.748 18.0813 211.748 17.5401Z" fill="white"/>
<path d="M63.2771 28.2051L64.8115 35.3416L68.8311 28.2051H70.3174L68.795 36.9663H67.6698L68.2715 33.5003L68.9875 29.9742L65.0161 36.9663H64.1496L62.5851 29.8358L62.0436 33.6147L61.4599 36.9663H60.3287L61.851 28.2051H63.2771ZM74.9114 36.3225C74.402 36.848 73.7541 37.1027 72.9679 37.0867C72.3461 37.0706 71.8847 36.848 71.5839 36.4187C71.287 35.9895 71.1767 35.4038 71.2529 34.6617L71.9509 30.4556H73.0401L72.336 34.6797C72.316 34.8562 72.312 35.0287 72.324 35.1972C72.3441 35.4861 72.4303 35.7127 72.5828 35.8772C72.7352 36.0417 72.9478 36.1299 73.2206 36.1419C73.9988 36.166 74.6006 35.8511 75.0258 35.1972L75.8441 30.4556H76.9333L75.802 36.9663H74.773L74.9114 36.3225ZM81.5875 35.2032C81.6477 34.7539 81.401 34.437 80.8474 34.2525L79.7161 33.9216C78.7614 33.5926 78.3001 33.047 78.3322 32.2849C78.3602 31.7112 78.621 31.2419 79.1144 30.8768C79.6118 30.5077 80.1955 30.3272 80.8654 30.3352C81.5233 30.3433 82.0569 30.5358 82.466 30.9129C82.8792 31.286 83.0778 31.7734 83.0618 32.3751L81.9786 32.3691C81.9867 32.0442 81.8844 31.7794 81.6718 31.5748C81.4591 31.3702 81.1763 31.2639 80.8233 31.2559C80.4462 31.2479 80.1213 31.3401 79.8485 31.5327C79.5958 31.7132 79.4494 31.9499 79.4093 32.2427C79.3571 32.6198 79.5878 32.8946 80.1012 33.0671L80.6488 33.2175C81.395 33.4101 81.9245 33.6608 82.2374 33.9697C82.5503 34.2786 82.6947 34.6617 82.6706 35.119C82.6466 35.5242 82.5142 35.8772 82.2735 36.178C82.0328 36.4789 81.7119 36.7096 81.3107 36.87C80.9096 37.0265 80.4823 37.0987 80.029 37.0867C79.3391 37.0786 78.7694 36.8781 78.3201 36.4849C77.8708 36.0878 77.6542 35.5783 77.6703 34.9565L78.7594 34.9625C78.7594 35.3276 78.8757 35.6204 79.1084 35.8411C79.3411 36.0617 79.66 36.172 80.0651 36.172C80.4623 36.18 80.8053 36.0978 81.0941 35.9253C81.3829 35.7488 81.5474 35.5081 81.5875 35.2032ZM86.7171 37.0867C85.9068 37.0706 85.273 36.7717 84.8157 36.1901C84.3584 35.6084 84.1658 34.8643 84.238 33.9577L84.2681 33.6989C84.3363 33.0531 84.5268 32.4634 84.8397 31.9298C85.1567 31.3963 85.5418 30.9951 85.9951 30.7264C86.4484 30.4536 86.9378 30.3232 87.4633 30.3352C88.1332 30.3513 88.6587 30.5739 89.0398 31.0032C89.4209 31.4324 89.6295 32.0141 89.6656 32.7482C89.6776 33.0089 89.6696 33.2697 89.6415 33.5304L89.5754 34.0299H85.3211C85.2489 34.6196 85.3452 35.121 85.61 35.5342C85.8787 35.9474 86.2779 36.162 86.8074 36.178C87.4492 36.1941 88.0429 35.9053 88.5885 35.3116L89.2143 35.8411C88.9415 36.2342 88.5885 36.5431 88.1553 36.7677C87.726 36.9884 87.2467 37.0947 86.7171 37.0867ZM87.4091 31.2439C86.9598 31.2318 86.5667 31.3843 86.2297 31.7012C85.8968 32.0181 85.632 32.4894 85.4355 33.1152L88.6006 33.1213L88.6246 33.025C88.6888 32.5195 88.6066 32.1003 88.3779 31.7674C88.1533 31.4304 87.8303 31.2559 87.4091 31.2439ZM94.5485 36.3225C94.0391 36.848 93.3912 37.1027 92.6049 37.0867C91.9832 37.0706 91.5218 36.848 91.221 36.4187C90.9241 35.9895 90.8138 35.4038 90.89 34.6617L91.588 30.4556H92.6771L91.9731 34.6797C91.9531 34.8562 91.9491 35.0287 91.9611 35.1972C91.9811 35.4861 92.0674 35.7127 92.2198 35.8772C92.3723 36.0417 92.5849 36.1299 92.8577 36.1419C93.6359 36.166 94.2376 35.8511 94.6629 35.1972L95.4812 30.4556H96.5703L95.4391 36.9663H94.4101L94.5485 36.3225ZM99.3412 30.4496L99.2028 31.1777C99.7484 30.6 100.408 30.3192 101.182 30.3352C101.596 30.3433 101.945 30.4375 102.229 30.6181C102.518 30.7986 102.717 31.0533 102.825 31.3823C103.435 30.6682 104.155 30.3192 104.985 30.3352C105.635 30.3513 106.115 30.5699 106.424 30.9911C106.732 31.4123 106.847 31.978 106.767 32.688L106.05 36.9663H104.967L105.677 32.676C105.701 32.4674 105.701 32.2768 105.677 32.1043C105.601 31.5588 105.244 31.28 104.606 31.2679C104.209 31.2599 103.848 31.3843 103.523 31.641C103.202 31.8937 102.996 32.2267 102.903 32.6399L102.163 36.9663H101.068L101.79 32.682C101.842 32.2367 101.774 31.8937 101.586 31.653C101.401 31.4123 101.112 31.288 100.719 31.28C100.041 31.2639 99.5016 31.5728 99.1005 32.2066L98.2761 36.9663H97.187L98.3182 30.4556L99.3412 30.4496ZM111.243 34.6557C111.303 33.9095 111.749 33.2436 112.579 32.6579L113.265 32.2006L113.006 31.7373C112.717 31.2078 112.589 30.7163 112.621 30.263C112.669 29.6011 112.91 29.0696 113.343 28.6685C113.776 28.2633 114.322 28.0687 114.98 28.0848C115.521 28.0928 115.969 28.2693 116.322 28.6143C116.675 28.9553 116.835 29.3805 116.803 29.89C116.767 30.58 116.34 31.2118 115.521 31.7854L114.637 32.3751L116.135 34.6677C116.5 34.1261 116.729 33.5445 116.821 32.9227H117.79C117.682 33.9456 117.319 34.8021 116.701 35.4921L117.646 36.9663H116.43L115.991 36.2864C115.293 36.8319 114.525 37.0967 113.686 37.0806C112.928 37.0726 112.318 36.844 111.857 36.3947C111.396 35.9414 111.191 35.3617 111.243 34.6557ZM113.722 36.178C114.26 36.1901 114.829 35.9634 115.431 35.4981L113.8 32.9468L113.542 33.1273C112.824 33.6247 112.427 34.1362 112.35 34.6617C112.29 35.0949 112.386 35.454 112.639 35.7388C112.892 36.0236 113.253 36.17 113.722 36.178ZM113.692 30.2209C113.66 30.5579 113.758 30.929 113.987 31.3341L114.15 31.6169L115.07 30.9972C115.499 30.6762 115.736 30.3052 115.78 29.884C115.804 29.6272 115.734 29.4146 115.57 29.2461C115.405 29.0776 115.186 28.9934 114.914 28.9934C114.581 28.9934 114.302 29.1157 114.077 29.3604C113.853 29.6011 113.724 29.888 113.692 30.2209ZM121.936 36.9663L123.458 28.2051L126.027 28.2111C126.922 28.2111 127.592 28.4117 128.037 28.8129C128.482 29.214 128.677 29.7736 128.621 30.4917C128.549 31.3301 128.021 31.9619 127.038 32.3871C127.431 32.5396 127.724 32.8003 127.917 33.1694C128.113 33.5385 128.194 33.9456 128.158 34.3909C128.097 35.1812 127.78 35.809 127.207 36.2743C126.633 36.7356 125.891 36.9663 124.98 36.9663H121.936ZM123.777 32.8685L123.229 36.0216L125.016 36.0276C125.562 36.0276 126.019 35.8812 126.388 35.5883C126.757 35.2955 126.972 34.9004 127.032 34.4029C127.088 33.9296 127.006 33.5605 126.786 33.2958C126.565 33.031 126.218 32.8906 125.745 32.8745L123.777 32.8685ZM123.939 31.9419L125.57 31.9479C126.08 31.9479 126.509 31.8175 126.858 31.5568C127.211 31.296 127.417 30.937 127.478 30.4797C127.53 30.0544 127.445 29.7335 127.225 29.5169C127.008 29.3003 126.647 29.1819 126.142 29.1619L124.421 29.1559L123.939 31.9419ZM133.016 30.3352C133.562 30.3433 134.029 30.4917 134.418 30.7805C134.808 31.0694 135.094 31.4685 135.279 31.978C135.467 32.4834 135.532 33.037 135.471 33.6387L135.459 33.7711C135.383 34.4049 135.195 34.9786 134.894 35.4921C134.593 36.0015 134.204 36.3987 133.726 36.6835C133.249 36.9683 132.726 37.1027 132.156 37.0867C131.614 37.0786 131.147 36.9302 130.754 36.6414C130.365 36.3525 130.08 35.9594 129.899 35.462C129.719 34.9646 129.655 34.417 129.707 33.8193C129.767 33.1453 129.95 32.5396 130.254 32.002C130.559 31.4645 130.95 31.0493 131.428 30.7565C131.909 30.4596 132.439 30.3192 133.016 30.3352ZM130.802 33.8253C130.774 34.078 130.774 34.3408 130.802 34.6135C130.842 35.0869 130.983 35.464 131.223 35.7448C131.468 36.0256 131.793 36.172 132.198 36.1841C132.559 36.1961 132.892 36.1078 133.197 35.9193C133.502 35.7267 133.759 35.4379 133.967 35.0528C134.176 34.6677 134.31 34.2405 134.37 33.7711C134.402 33.4021 134.408 33.0912 134.388 32.8384C134.34 32.353 134.194 31.9699 133.949 31.6891C133.704 31.4083 133.379 31.2599 132.974 31.2439C132.413 31.2318 131.935 31.4525 131.542 31.9058C131.149 32.3591 130.906 32.9528 130.814 33.6869L130.802 33.8253ZM139.283 28.8791L139.006 30.4556H140.192L140.041 31.3161H138.862L138.182 35.3657C138.17 35.47 138.168 35.5663 138.176 35.6545C138.204 35.9674 138.375 36.1239 138.688 36.1239C138.82 36.1239 138.996 36.1038 139.217 36.0637L139.133 36.9723C138.872 37.0445 138.607 37.0806 138.339 37.0806C137.905 37.0726 137.58 36.9142 137.364 36.6053C137.147 36.2924 137.063 35.8732 137.111 35.3477L137.773 31.3161H136.624L136.774 30.4556H137.923L138.2 28.8791H139.283ZM144.485 36.9663C144.457 36.85 144.443 36.7356 144.443 36.6233L144.461 36.2803C143.863 36.8339 143.229 37.1027 142.56 37.0867C141.986 37.0786 141.519 36.8981 141.158 36.5451C140.801 36.1881 140.638 35.7428 140.67 35.2093C140.71 34.5193 141.011 33.9817 141.573 33.5966C142.138 33.2075 142.88 33.0129 143.799 33.0129L144.936 33.019L145.009 32.5015C145.049 32.1124 144.972 31.8055 144.78 31.5808C144.591 31.3522 144.307 31.2338 143.925 31.2258C143.552 31.2178 143.221 31.3101 142.933 31.5026C142.648 31.6911 142.473 31.9419 142.409 32.2548L141.314 32.2608C141.35 31.8797 141.499 31.5427 141.759 31.2499C142.02 30.953 142.355 30.7244 142.764 30.5639C143.173 30.3994 143.597 30.3212 144.034 30.3292C144.712 30.3453 145.239 30.5519 145.616 30.949C145.993 31.3421 146.152 31.8656 146.092 32.5195L145.562 35.7448L145.532 36.2081C145.524 36.4288 145.548 36.6474 145.604 36.864L145.592 36.9663H144.485ZM142.776 36.1239C143.125 36.1319 143.454 36.0497 143.763 35.8772C144.076 35.7007 144.345 35.458 144.569 35.1491L144.804 33.8072L143.98 33.8012C143.294 33.8012 142.768 33.9095 142.403 34.1261C142.038 34.3428 141.831 34.6497 141.783 35.0468C141.747 35.3517 141.817 35.6064 141.994 35.811C142.174 36.0116 142.435 36.1159 142.776 36.1239ZM149.356 30.4496L149.2 31.2739C149.785 30.6321 150.451 30.3192 151.197 30.3352C151.811 30.3513 152.264 30.5639 152.557 30.9731C152.85 31.3823 152.958 31.9579 152.882 32.7L152.172 36.9663H151.083L151.799 32.682C151.823 32.4854 151.825 32.3029 151.805 32.1344C151.737 31.5728 151.406 31.286 150.812 31.2739C150.158 31.2619 149.585 31.6109 149.091 32.321L148.285 36.9663H147.196L148.327 30.4556L149.356 30.4496ZM155.154 36.9663H154.07L155.202 30.4556H156.285L155.154 36.9663ZM156.05 28.0788C156.235 28.0707 156.387 28.1269 156.507 28.2472C156.632 28.3636 156.694 28.518 156.694 28.7106C156.69 28.8991 156.628 29.0536 156.507 29.1739C156.391 29.2943 156.239 29.3584 156.05 29.3665C155.862 29.3745 155.707 29.3203 155.587 29.204C155.466 29.0877 155.408 28.9352 155.412 28.7467C155.416 28.5581 155.476 28.4017 155.593 28.2773C155.709 28.153 155.862 28.0868 156.05 28.0788ZM159.808 36.1841C160.197 36.1921 160.548 36.0798 160.861 35.8471C161.174 35.6104 161.378 35.3015 161.475 34.9204L162.504 34.9144C162.443 35.3236 162.279 35.6967 162.01 36.0336C161.745 36.3706 161.41 36.6334 161.005 36.8219C160.6 37.0104 160.185 37.0987 159.76 37.0867C159.218 37.0786 158.759 36.9382 158.382 36.6654C158.009 36.3886 157.734 36.0055 157.557 35.5161C157.381 35.0227 157.321 34.4691 157.377 33.8554L157.407 33.5545C157.483 32.9287 157.666 32.3691 157.954 31.8757C158.243 31.3823 158.62 30.9992 159.086 30.7264C159.551 30.4496 160.065 30.3192 160.626 30.3352C161.308 30.3513 161.854 30.58 162.263 31.0212C162.672 31.4625 162.877 32.0221 162.877 32.7L161.86 32.694C161.852 32.2688 161.733 31.9258 161.505 31.6651C161.276 31.4003 160.967 31.2599 160.578 31.2439C160.012 31.2318 159.541 31.4424 159.164 31.8757C158.791 32.3089 158.558 32.9147 158.466 33.6929L158.448 33.8493C158.424 34.1061 158.42 34.3708 158.436 34.6436C158.464 35.113 158.596 35.484 158.833 35.7568C159.07 36.0296 159.395 36.172 159.808 36.1841ZM167.483 36.9663C167.455 36.85 167.441 36.7356 167.441 36.6233L167.459 36.2803C166.861 36.8339 166.227 37.1027 165.557 37.0867C164.984 37.0786 164.516 36.8981 164.155 36.5451C163.798 36.1881 163.636 35.7428 163.668 35.2093C163.708 34.5193 164.009 33.9817 164.57 33.5966C165.136 33.2075 165.878 33.0129 166.797 33.0129L167.934 33.019L168.006 32.5015C168.046 32.1124 167.97 31.8055 167.778 31.5808C167.589 31.3522 167.304 31.2338 166.923 31.2258C166.55 31.2178 166.219 31.3101 165.93 31.5026C165.645 31.6911 165.471 31.9419 165.407 32.2548L164.312 32.2608C164.348 31.8797 164.496 31.5427 164.757 31.2499C165.018 30.953 165.353 30.7244 165.762 30.5639C166.171 30.3994 166.594 30.3212 167.031 30.3292C167.709 30.3453 168.237 30.5519 168.614 30.949C168.991 31.3421 169.15 31.8656 169.089 32.5195L168.56 35.7448L168.53 36.2081C168.522 36.4288 168.546 36.6474 168.602 36.864L168.59 36.9663H167.483ZM165.774 36.1239C166.123 36.1319 166.452 36.0497 166.761 35.8772C167.074 35.7007 167.342 35.458 167.567 35.1491L167.802 33.8072L166.977 33.8012C166.291 33.8012 165.766 33.9095 165.401 34.1261C165.036 34.3428 164.829 34.6497 164.781 35.0468C164.745 35.3517 164.815 35.6064 164.992 35.811C165.172 36.0116 165.433 36.1159 165.774 36.1239ZM171.373 36.9663H170.29L171.89 27.7237H172.979L171.373 36.9663ZM183.136 35.811C182.844 36.2242 182.416 36.5431 181.855 36.7677C181.297 36.9884 180.659 37.0947 179.941 37.0867C179.368 37.0746 178.866 36.9402 178.437 36.6835C178.008 36.4268 177.671 36.0597 177.426 35.5823C177.181 35.1009 177.041 34.5554 177.005 33.9456C176.977 33.4683 177.035 32.8224 177.179 32.0081C177.328 31.1937 177.584 30.4897 177.949 29.896C178.314 29.3023 178.77 28.849 179.315 28.5361C179.865 28.2232 180.493 28.0727 181.199 28.0848C182.013 28.1008 182.661 28.3435 183.142 28.8129C183.628 29.2782 183.905 29.9341 183.973 30.7805H182.854C182.809 30.2269 182.643 29.8017 182.354 29.5049C182.065 29.208 181.666 29.0516 181.157 29.0355C180.402 29.0074 179.771 29.2782 179.261 29.8478C178.756 30.4175 178.423 31.2499 178.262 32.345L178.148 33.1874L178.13 33.6448C178.13 34.435 178.292 35.0468 178.617 35.48C178.942 35.9093 179.398 36.1279 179.983 36.1359C180.83 36.156 181.502 35.9474 181.999 35.5101L182.36 33.5425H180.386L180.555 32.6038H183.636L183.136 35.811ZM188.735 36.9663C188.707 36.85 188.693 36.7356 188.693 36.6233L188.711 36.2803C188.114 36.8339 187.48 37.1027 186.81 37.0867C186.236 37.0786 185.769 36.8981 185.408 36.5451C185.051 36.1881 184.888 35.7428 184.92 35.2093C184.96 34.5193 185.261 33.9817 185.823 33.5966C186.389 33.2075 187.131 33.0129 188.049 33.0129L189.187 33.019L189.259 32.5015C189.299 32.1124 189.223 31.8055 189.03 31.5808C188.842 31.3522 188.557 31.2338 188.176 31.2258C187.803 31.2178 187.472 31.3101 187.183 31.5026C186.898 31.6911 186.724 31.9419 186.659 32.2548L185.564 32.2608C185.6 31.8797 185.749 31.5427 186.009 31.2499C186.27 30.953 186.605 30.7244 187.014 30.5639C187.424 30.3994 187.847 30.3212 188.284 30.3292C188.962 30.3453 189.489 30.5519 189.867 30.949C190.244 31.3421 190.402 31.8656 190.342 32.5195L189.812 35.7448L189.782 36.2081C189.774 36.4288 189.798 36.6474 189.855 36.864L189.842 36.9663H188.735ZM187.026 36.1239C187.375 36.1319 187.704 36.0497 188.013 35.8772C188.326 35.7007 188.595 35.458 188.82 35.1491L189.054 33.8072L188.23 33.8012C187.544 33.8012 187.018 33.9095 186.653 34.1261C186.288 34.3428 186.082 34.6497 186.034 35.0468C185.997 35.3517 186.068 35.6064 186.244 35.811C186.425 36.0116 186.685 36.1159 187.026 36.1239ZM195.496 31.4484L194.984 31.3943C194.286 31.3943 193.737 31.7092 193.335 32.339L192.535 36.9663H191.446L192.577 30.4556L193.63 30.4496L193.468 31.2078C193.929 30.602 194.473 30.3072 195.098 30.3232C195.231 30.3232 195.403 30.3533 195.616 30.4135L195.496 31.4484ZM195.866 33.6989C195.946 33.037 196.128 32.4393 196.413 31.9058C196.698 31.3722 197.049 30.9731 197.466 30.7083C197.883 30.4436 198.343 30.3172 198.844 30.3292C199.57 30.3453 200.128 30.61 200.517 31.1235L201.143 27.7237H202.232L200.631 36.9663H199.638L199.753 36.2683C199.239 36.8299 198.605 37.1027 197.851 37.0867C197.25 37.0706 196.77 36.8359 196.413 36.3826C196.056 35.9253 195.864 35.3136 195.835 34.5474C195.823 34.3107 195.833 34.0279 195.866 33.6989ZM196.913 34.3247C196.901 34.8984 197.003 35.3436 197.219 35.6606C197.436 35.9775 197.753 36.1399 198.17 36.148C198.8 36.176 199.36 35.8591 199.849 35.1972L200.367 32.1886C200.126 31.5949 199.689 31.29 199.055 31.2739C198.626 31.2619 198.246 31.3923 197.917 31.6651C197.593 31.9338 197.344 32.3129 197.171 32.8023C197.003 33.2877 196.917 33.7952 196.913 34.3247ZM205.292 37.0867C204.481 37.0706 203.847 36.7717 203.39 36.1901C202.933 35.6084 202.74 34.8643 202.812 33.9577L202.843 33.6989C202.911 33.0531 203.101 32.4634 203.414 31.9298C203.731 31.3963 204.116 30.9951 204.569 30.7264C205.023 30.4536 205.512 30.3232 206.038 30.3352C206.708 30.3513 207.233 30.5739 207.614 31.0032C207.995 31.4324 208.204 32.0141 208.24 32.7482C208.252 33.0089 208.244 33.2697 208.216 33.5304L208.15 34.0299H203.896C203.823 34.6196 203.92 35.121 204.184 35.5342C204.453 35.9474 204.852 36.162 205.382 36.178C206.024 36.1941 206.617 35.9053 207.163 35.3116L207.789 35.8411C207.516 36.2342 207.163 36.5431 206.73 36.7677C206.3 36.9884 205.821 37.0947 205.292 37.0867ZM205.984 31.2439C205.534 31.2318 205.141 31.3843 204.804 31.7012C204.471 32.0181 204.206 32.4894 204.01 33.1152L207.175 33.1213L207.199 33.025C207.263 32.5195 207.181 32.1003 206.952 31.7674C206.728 31.4304 206.405 31.2559 205.984 31.2439ZM211.149 30.4496L210.993 31.2739C211.578 30.6321 212.244 30.3192 212.991 30.3352C213.604 30.3513 214.058 30.5639 214.35 30.9731C214.643 31.3823 214.752 31.9579 214.675 32.7L213.965 36.9663H212.876L213.592 32.682C213.616 32.4854 213.618 32.3029 213.598 32.1344C213.53 31.5728 213.199 31.286 212.605 31.2739C211.952 31.2619 211.378 31.6109 210.884 32.321L210.078 36.9663H208.989L210.12 30.4556L211.149 30.4496Z" fill="white"/>
<path fill-rule="evenodd" clip-rule="evenodd" d="M24 48C37.2548 48 48 37.2548 48 24C48 10.7452 37.2548 0 24 0C10.7452 0 0 10.7452 0 24C0 30.8612 2.87918 37.05 7.49526 41.424C8.08984 41.0512 8.68027 40.6742 9.26615 40.293C9.3248 39.9639 9.39513 39.5653 9.47378 39.1119C9.5149 38.8804 9.5591 38.6352 9.61087 38.3794C9.65099 38.1735 9.69699 37.9618 9.74472 37.742L9.76469 37.6501C9.96246 36.7464 10.1699 35.731 10.3397 34.6667H10.2671C8.37285 34.7017 6.63539 34.1901 5.6319 33.0602C5.17355 32.5455 4.84917 31.9014 4.75323 31.1294C4.65121 30.304 4.80959 29.331 5.28012 28.2057L5.35317 27.9971L5.67298 28.0671C6.89574 28.3047 8.46113 28.6214 9.52705 30.004C10.0181 30.6397 10.4037 31.5041 10.5955 32.6987C10.6133 32.515 10.6293 32.3309 10.6433 32.1469C10.7258 31.0638 10.7451 29.9829 10.6567 28.966C8.59509 28.1532 6.94127 25.7411 6.4609 23.1094C6.27513 22.0907 6.25835 21.0385 6.47001 20.0532C6.79283 18.5503 7.61516 17.1997 9.01 16.2921L9.15619 16.1885L9.38613 16.3819C11.1982 17.8605 12.1072 19.9558 12.3539 22.2231C12.5869 24.3793 12.2123 26.6909 11.4449 28.774L11.3249 29.0857C11.4751 30.0761 11.5325 31.1275 11.5234 32.1849C11.5051 34.1995 11.2585 36.2324 10.9494 37.8906C10.9022 38.1495 10.8503 38.3993 10.794 38.6384C10.7316 38.8987 10.6647 39.1454 10.5961 39.3769L10.5819 39.4243C14.6626 36.6908 18.5016 33.7437 21.9554 30.5686C21.946 30.4399 21.9314 30.1898 21.9284 29.8475C21.9269 29.6846 21.9269 29.5049 21.9421 29.3069C21.957 29.1336 21.9831 28.9495 22.0105 28.7561C22.0282 28.6318 22.0463 28.5036 22.0624 28.372C22.1223 27.8919 22.1837 27.3759 22.2165 26.8523C20.9644 26.0101 19.901 24.8183 19.2086 23.5555C18.8706 22.9403 18.6209 22.3084 18.4747 21.7023C18.3178 21.0491 18.2661 20.4247 18.3483 19.8765C18.5051 18.8228 19.0549 18.0233 20.0934 17.7629C20.832 17.4812 21.6177 17.7554 22.3029 18.4102C22.9912 19.068 23.5729 20.1248 23.882 21.3384C24.3153 23.0507 24.1847 25.0613 23.0917 26.7086C23.1213 26.9646 23.1438 27.2213 23.1603 27.4751C23.1893 27.8984 23.2029 28.3095 23.1938 28.6933C23.1867 28.963 23.1784 29.2171 23.148 29.4481C25.3876 27.2974 27.4489 25.0448 29.2893 22.6859C29.7847 22.0523 30.1914 21.46 30.5528 20.8502L30.3927 20.545C29.5217 18.9324 29.0024 16.825 29.0283 14.8454C29.0405 13.9546 29.1623 13.0896 29.4029 12.313C29.6511 11.5136 30.0135 10.8009 30.5069 10.2482C31.2789 9.38021 32.3312 8.86713 33.6925 8.96001C34.559 8.94174 35.1574 9.45486 35.5046 10.2985C35.9964 11.4923 35.9476 13.4048 35.4284 15.2763C34.7874 17.5828 33.4125 19.7875 31.5636 20.6094C31.1214 21.488 30.6188 22.3009 29.9579 23.1929C29.6087 23.6639 29.2512 24.131 28.8855 24.5945C29.0906 24.499 29.3036 24.406 29.5231 24.3155C29.8721 24.1723 30.236 24.0377 30.6103 23.9185C31.3075 22.5581 32.5348 21.351 33.9019 20.5661C34.5308 20.2053 35.1886 19.9343 35.8266 19.7744C36.4996 19.6054 37.1514 19.5475 37.7285 19.6327C38.8005 19.7911 39.6334 20.3546 39.9197 21.4433C40.2197 22.2199 40.2151 22.864 40.0141 23.3909C39.6928 24.2391 38.8279 24.7994 37.7057 25.1116C35.5327 25.7177 32.3837 25.3765 30.8259 24.7415L30.8256 24.7414C30.7595 24.7737 30.6938 24.8063 30.6286 24.8393C29.9478 25.1844 29.3387 25.5914 28.7974 25.9533C28.6243 26.0689 28.4582 26.18 28.2989 26.2829C28.014 26.4673 27.7498 26.6178 27.5223 26.7474L27.5223 26.7474L27.5222 26.7474L27.5116 26.7535C27.1163 26.9769 26.8404 27.117 26.7417 27.1661C24.1983 30.06 21.3426 32.7997 18.2555 35.3886C18.3518 35.3749 18.4521 35.3619 18.5563 35.3503C18.7243 35.3317 18.9009 35.3148 19.0844 35.2972C19.7144 35.2368 20.4261 35.1686 21.1525 35C21.3675 34.9498 21.5837 34.8942 21.7994 34.8319L21.8827 34.6502C22.8725 32.4193 24.6388 31.163 26.6275 30.595C27.4376 30.3651 28.2843 30.2479 29.1248 30.2342C30.4252 30.2144 31.7013 30.4322 32.8069 30.7352L33.1098 30.8052L32.9743 31.1737C32.0531 33.8294 30.3765 35.1572 28.5674 35.7298C26.3876 36.4192 23.9929 35.9881 22.4192 35.3969C21.8453 35.6873 21.251 35.9184 20.6713 36.1024C20.1978 36.2532 19.7394 36.3735 19.3069 36.4557C18.9765 36.5197 18.6644 36.573 18.3781 36.5897C18.0812 36.605 17.8177 36.5897 17.5939 36.5699C17.2871 36.5421 17.0611 36.5042 16.9311 36.4787C14.3234 38.5859 11.5651 40.5901 8.70176 42.4931C12.855 45.9327 18.1861 48 24 48ZM10.9601 27.4187C11.4983 25.7553 11.7613 23.9788 11.6291 22.2901C11.4722 20.2801 10.7596 18.3965 9.27646 16.991C8.24404 17.8498 7.71414 19.0117 7.50705 20.2497C7.36086 21.1177 7.37604 22.0267 7.53289 22.916C7.897 24.9851 8.99603 26.9555 10.5112 27.8619C10.3961 27.229 10.2272 26.6338 9.99156 26.0939C9.94283 25.9934 9.98548 25.8716 10.086 25.8229C10.188 25.7742 10.3099 25.8168 10.3586 25.9173C10.6014 26.3768 10.8001 26.8812 10.9601 27.4187ZM22.4416 24.1494C22.5801 24.4412 22.695 24.7624 22.7897 25.1018C23.2784 23.9467 23.3198 22.6613 23.0901 21.518C22.8298 20.2222 22.2329 19.0969 21.4974 18.5457C21.1091 18.2548 20.6873 18.1239 20.2655 18.2579C19.6868 18.5228 19.4219 19.0101 19.3366 19.6024C19.2605 20.1339 19.3625 20.7445 19.568 21.3993C19.731 21.9139 19.9655 22.4485 20.2579 22.9799C20.7532 23.8808 21.4185 24.773 22.2255 25.4934C22.2019 25.0695 22.1485 24.6648 22.0472 24.2971C22.0076 24.1889 22.0624 24.0672 22.1705 24.026C22.2801 23.9865 22.4005 24.0413 22.4416 24.1494ZM24.1097 34.2798C23.9019 34.4599 23.6841 34.6272 23.4588 34.7826C24.8344 35.2304 26.6524 35.4928 28.3558 35.0172C29.9258 34.5771 31.3891 33.5035 32.3225 31.3762C31.1439 31.1935 29.8055 31.1707 28.4853 31.3413C27.5884 31.457 26.696 31.658 25.8707 32.0249C24.7991 32.5015 23.8372 33.2353 23.1337 34.3375C23.3823 34.2205 23.6248 34.0894 23.8585 33.9417C23.9513 33.8731 24.0838 33.893 24.1523 33.9859C24.2224 34.0788 24.2026 34.2097 24.1097 34.2798ZM32.2973 24.1334C33.8061 24.5482 35.9296 24.7383 37.5199 24.3791C38.9665 24.0502 39.9562 23.2447 39.4248 21.6199C39.1416 21.0032 38.6299 20.7154 38.0163 20.6226C37.4559 20.5373 36.8133 20.6454 36.1372 20.8647C35.5966 21.0383 35.0424 21.291 34.4987 21.6047C33.6284 22.1059 32.7915 22.7646 32.1561 23.5391C32.5886 23.4666 33.0265 23.4235 33.464 23.4186C33.5797 23.4095 33.6817 23.4947 33.6908 23.6105C33.7 23.7262 33.6147 23.8282 33.499 23.8373C33.0915 23.902 32.6899 24.0044 32.2973 24.1334ZM32.9957 17.1385C32.7578 17.7985 32.5365 18.3895 32.3154 18.9355C33.3752 18.0202 34.169 16.5441 34.6488 15.0434C35.1878 13.3592 35.3325 11.6248 34.932 10.5208C34.7081 9.9071 34.3138 9.49902 33.6925 9.48532C32.7758 9.55079 32.0875 9.92841 31.5591 10.4857C31.0399 11.0339 30.7079 11.7771 30.4947 12.6207C30.3196 13.3151 30.2358 14.0749 30.2252 14.8606C30.2069 16.4976 30.5176 18.2381 31.1465 19.6527C31.1675 19.6446 31.1885 19.6363 31.2094 19.6278C31.5967 18.8338 31.9586 17.9598 32.3715 16.904C32.4354 16.7304 32.6288 16.6436 32.8008 16.7075C32.9744 16.773 33.0612 16.9664 32.9957 17.1385ZM5.89381 28.6625C5.67148 29.5625 5.66844 30.3208 5.79482 30.9634C5.90294 31.5116 6.12372 31.9669 6.44959 32.34C7.19269 33.1928 8.42302 33.6298 9.81024 33.7287C9.78284 32.2075 9.4509 31.1644 8.94078 30.435C8.13677 29.2838 6.91861 28.9168 5.89381 28.6625Z" fill="white"/>
</svg>
